<svg width="64" height="64" viewBox="0 0 64 64" fill="none" xmlns="http://www.w3.org/2000/svg">
<rect width="64" height="64" rx="7" fill="#F4F5FF"/>
<path d="M46.7156 16.7819C40.6106 10.4062 29.6261 10.4058 23.5215 16.782C18.2615 21.8748 17.2041 30.55 20.9959 36.7654L13.1759 44.6024C11.608 46.1737 11.608 48.7304 13.1759 50.3016C14.6742 51.8666 17.3715 51.8666 18.8698 50.3016L23.9524 45.2079L26.6655 42.489C32.8798 46.36 41.6043 45.3221 46.7155 40.019C53.076 33.9031 53.0763 22.8979 46.7156 16.7819V16.7819ZM17.2308 48.6662C16.5946 49.3307 15.451 49.3306 14.8147 48.6662C14.1466 47.9967 14.1466 46.9073 14.8147 46.2378L19.0797 41.9635L21.4993 44.3884L17.2308 48.6662ZM23.1348 42.7495L20.7152 40.3246L22.3378 38.6985C23.0481 39.5825 23.8706 40.4133 24.7484 41.1324L23.1348 42.7495ZM45.0766 38.3837C40.4848 43.1605 32.5119 43.8721 27.148 40.0432C27.146 40.0419 27.1441 40.0404 27.1421 40.0391C15.8429 32.1491 21.3265 14.3549 35.1186 14.2833C47.5829 14.2364 53.897 29.5908 45.0766 38.3837Z" fill="#4759F9"/>
<path d="M46.4959 28.3958C46.4137 21.9351 41.2577 17.0073 35.1184 17.0151C28.4398 17.027 23.5627 22.6181 23.7654 28.7145C23.9369 35.0284 29.1427 39.805 35.1184 39.7859C41.7145 39.7553 46.4359 34.4322 46.4959 28.3958V28.3958ZM41.5155 34.8149C40.081 36.2524 38.2498 37.1475 36.2695 37.398L36.2737 33.5499C36.2744 32.9106 35.7567 32.3918 35.1174 32.3911H35.1161C34.4773 32.3911 33.9591 32.9085 33.9584 33.5475L33.9543 37.3963C29.9885 36.9755 26.5632 33.4774 26.1507 29.5753L29.9608 29.5712C31.4959 29.5086 31.4935 27.3164 29.9596 27.256H29.9583L26.1461 27.2601C26.5453 23.3372 29.9872 19.816 33.9736 19.402L33.9695 23.266C33.9688 23.9053 34.4865 24.4242 35.1258 24.4249H35.1271C35.7659 24.4249 36.284 23.9074 36.2847 23.2685L36.2889 19.4055C40.2575 19.8292 43.6821 23.3351 44.0882 27.2406L40.2609 27.2447C38.7258 27.3074 38.7282 29.4995 40.2622 29.56H40.2636L44.0888 29.5559C43.8443 31.4802 42.9869 33.3403 41.5155 34.8149V34.8149Z" fill="#4759F9"/>
<path d="M35.1225 27.2529C33.5909 27.3147 33.586 29.5045 35.1201 29.5642C36.6516 29.5025 36.6565 27.3127 35.1225 27.2529Z" fill="#4759F9"/>
</svg>
