<svg width="64" height="64" viewBox="0 0 64 64" fill="none" xmlns="http://www.w3.org/2000/svg">
<rect width="64" height="64" rx="7" fill="#F4F5FF"/>
<path d="M31.7674 14C19.408 14.0005 13.9235 30.1361 24.3853 37.2298V38.9492C23.0234 40.1074 22.8675 42.3202 24.0737 43.6564C22.1978 45.7833 23.7446 49.2186 26.6065 49.2073H26.6507C27.7724 54.9 35.7648 54.8959 36.8842 49.2073H36.9284C39.7916 49.2182 41.3363 45.7824 39.4611 43.6564C40.6677 42.3197 40.5111 40.107 39.1496 38.9492V37.2299C49.6153 30.1324 44.1208 13.9985 31.7674 14V14ZM36.9284 40.4226C38.3052 40.4798 38.3042 42.4412 36.9284 42.4978H26.6065C25.2296 42.4406 25.2307 40.4793 26.6065 40.4226H36.9284ZM31.7674 51.1814C30.4958 51.1814 29.4148 50.3527 29.034 49.2073H34.5009C34.1201 50.3527 33.039 51.1814 31.7674 51.1814ZM36.9284 46.8901C35.2063 46.89 28.2895 46.89 26.6065 46.8901C25.2327 46.8344 25.2278 44.8729 26.6065 44.815H36.9284C38.302 44.8706 38.3072 46.8322 36.9284 46.8901ZM37.3773 35.6218C37.0383 35.8334 36.8324 36.2049 36.8324 36.6045V38.1054H35.0428V32.9592L37.5355 30.5038C37.9914 30.0548 37.9969 29.3212 37.5478 28.8654C37.0988 28.4095 36.3652 28.404 35.9095 28.853L33.0712 31.6488C32.8502 31.8665 32.7257 32.1638 32.7257 32.4742V38.1054H30.8011V32.4742C30.8011 32.1669 30.679 31.8722 30.4617 31.655L27.666 28.8592C27.2136 28.4068 26.48 28.4068 26.0275 28.8592C25.575 29.3117 25.575 30.0452 26.0275 30.4977L28.4839 32.9541V38.1055H26.7025V36.6046C26.7025 36.205 26.4965 35.8335 26.1576 35.6219C16.995 30.0709 21.4076 16.3277 31.7676 16.3172C42.1277 16.3281 46.5398 30.0721 37.3773 35.6218V35.6218Z" fill="#4759F9"/>
<path d="M47.2143 22.5379C47.3771 22.5379 47.5426 22.5034 47.7 22.4305L49.891 21.417C50.4717 21.1484 50.7247 20.4598 50.4561 19.879C50.1874 19.2983 49.4988 19.0451 48.9182 19.3139L46.7272 20.3275C45.6021 20.867 45.9863 22.5272 47.2143 22.5379Z" fill="#4759F9"/>
<path d="M50.3817 25.1182H47.9635C46.4263 25.1794 46.4275 27.3747 47.9635 27.4353H50.3817C51.9189 27.3742 51.9178 25.1788 50.3817 25.1182Z" fill="#4759F9"/>
<path d="M49.8568 31.1354L47.6659 30.1219C46.2451 29.5319 45.3244 31.525 46.693 32.225L48.8839 33.2385C49.4512 33.5048 50.1526 33.26 50.4219 32.6734C50.6906 32.0926 50.4376 31.4041 49.8568 31.1354Z" fill="#4759F9"/>
<path d="M15.8346 30.122L13.6436 31.1355C13.0629 31.4042 12.8099 32.0927 13.0785 32.6735C13.3479 33.2602 14.0491 33.5049 14.6165 33.2386L16.8075 32.225C17.3882 31.9564 17.6412 31.2678 17.3726 30.6871C17.1039 30.1063 16.4153 29.8534 15.8346 30.122Z" fill="#4759F9"/>
<path d="M15.5707 27.4353C17.1079 27.3741 17.1067 25.1788 15.5707 25.1182H13.1525C11.6153 25.1794 11.6164 27.3747 13.1525 27.4353H15.5707Z" fill="#4759F9"/>
<path d="M16.8417 20.3279L14.6507 19.3144C14.07 19.0457 13.3814 19.2988 13.1127 19.8795C12.844 20.4602 13.0971 21.1488 13.6778 21.4175L15.8688 22.431C16.436 22.6973 17.1374 22.4525 17.4067 21.8659C17.6754 21.2851 17.4224 20.5966 16.8417 20.3279Z" fill="#4759F9"/>
</svg>
