<svg width="128" height="128" viewBox="0 0 128 128" fill="none" xmlns="http://www.w3.org/2000/svg">
<rect width="128" height="128" rx="64" fill="#DADEFF"/>
<path d="M46.0381 32.4414C55.2458 32.3072 61.9596 42.0447 58.5918 50.584L58.333 51.2402L59.0361 51.1836C59.5727 51.1407 60.1035 51.1162 60.623 51.1162H73.085L73.2168 50.9395C75.3195 48.1204 78.6851 46.446 82.2422 46.5059L87.8477 46.6055C88.2577 46.6127 88.6427 46.7941 88.9082 47.0996L89.0146 47.2383C89.2769 47.6267 89.3332 48.1188 89.166 48.5566L86.1885 56.3545L86.0869 56.6191L86.2861 56.8203C87.5062 58.0568 88.7341 59.7881 89.9473 62.0049L90.0518 62.1963L90.2676 62.2285C93.3503 62.6903 95.7225 65.3577 95.7227 68.5664V73.5732C95.7227 76.6476 93.5449 79.2253 90.6504 79.8418L90.4092 79.8926L90.3271 80.125C89.0649 83.6852 86.7692 86.1604 84.7578 87.7578L84.5908 87.8896V94.1221C84.5907 94.9163 83.9466 95.5605 83.1523 95.5605H75.6553C74.861 95.5605 74.2169 94.9163 74.2168 94.1221V92.2891H60.623C59.9934 92.2891 59.3626 92.2594 58.7354 92.2021L58.2559 92.1592V94.1221C58.2557 94.9163 57.6116 95.5605 56.8174 95.5605H49.4453C48.6511 95.5605 48.007 94.9163 48.0068 94.1221V88.8945C48.0068 88.3285 47.7692 87.7921 47.3418 87.4307L47.3398 87.4287C41.6471 82.6671 38.9199 74.9133 40.458 67.6514L40.5703 67.1201H38.5488C37.0884 67.12 35.8994 65.9311 35.8994 64.4707C35.8992 63.3554 34.997 62.4479 33.8838 62.4395C31.9589 62.3615 31.9591 59.6431 33.8809 59.5625C36.3735 59.5688 38.4365 61.4443 38.7383 63.8584L38.7871 64.2441H41.4785L41.5908 63.9717C42.1985 62.4961 42.9769 61.0812 43.9111 59.7598L44.2988 59.2119L43.6416 59.0752C27.7265 55.758 29.6562 32.9199 46.0381 32.4414ZM82.1914 49.3828C79.3091 49.3322 76.587 50.8324 75.0918 53.3008C74.8312 53.731 74.3644 53.9941 73.8613 53.9941H60.623C59.2693 53.9942 57.7924 54.1744 56.4014 54.5049L56.2637 54.5371L56.1709 54.6445C54.1841 56.9369 51.4362 58.5508 48.3262 59.0898L48.1875 59.1133L48.0879 59.2139C40.8731 66.507 41.2998 78.7161 49.1992 85.2324V85.2334C50.2684 86.1373 50.8838 87.4707 50.8838 88.8945V92.6836H55.3789V90.4912C55.379 90.4899 55.3794 90.4833 55.3799 90.4766C55.3804 90.4692 55.3807 90.458 55.3809 90.4453V86.626C55.4579 84.6985 58.1817 84.6981 58.2578 86.626V89.2578L58.6494 89.3018C59.3033 89.3743 59.9631 89.4121 60.623 89.4121H74.2168V86.6143C74.3016 84.7583 76.8508 84.7037 77.0791 86.4512L77.0938 86.626V92.6836H81.7139V87.168C81.7139 86.7043 81.9376 86.2682 82.3145 85.998C84.2843 84.5864 86.8757 82.0757 87.9248 78.1699C88.0937 77.5419 88.663 77.1056 89.3135 77.1055C91.2612 77.1055 92.8457 75.521 92.8457 73.5732V68.5664C92.8455 66.6186 91.2612 65.0352 89.3135 65.0352H89.1631C88.6242 65.0352 88.1302 64.7339 87.8838 64.2549C86.029 60.6505 84.4932 58.9592 83.4932 58.166C83.0017 57.7761 82.8194 57.1124 83.043 56.5264L85.5234 50.0312L85.7471 49.4453L85.1211 49.4346L82.1914 49.3828ZM82.4541 64.3984C83.2446 64.3984 83.8853 65.0362 83.8916 65.8252C83.8099 67.7454 81.097 67.7453 81.0156 65.8252C81.0219 65.0362 81.6636 64.3985 82.4541 64.3984ZM70.5215 59.4629L70.6973 59.4775C72.4476 59.7075 72.3896 62.2658 70.5225 62.3398H60.8867C59.0197 62.2655 58.9599 59.7068 60.7109 59.4775L60.8857 59.4629H70.5215ZM46.0264 35.3184C40.2109 35.3184 35.4805 40.0487 35.4805 45.8643V45.8828C36.0592 59.8525 55.996 59.8471 56.5723 45.8818V45.8643C56.5723 40.0489 51.8419 35.3184 46.0264 35.3184ZM39.4775 45.8828C39.8325 37.3091 51.8339 37.1765 52.5518 45.4805L52.5771 45.8828C52.5673 49.4854 49.6323 52.414 46.0273 52.4141C42.4224 52.4141 39.4875 49.4855 39.4775 45.8828ZM46.0273 42.1914C44.0017 42.1914 42.3545 43.8386 42.3545 45.8643V45.8828C42.5556 50.7343 49.4988 50.732 49.6992 45.8828L49.7002 45.873V45.8643C49.7003 43.8386 48.0529 42.1915 46.0273 42.1914Z" fill="#4759F9" stroke="#4759F9" stroke-width="0.879669"/>
</svg>
