<svg width="208" height="58" viewBox="0 0 208 58" fill="none" xmlns="http://www.w3.org/2000/svg">
<path d="M71.7294 41V16.4372H80.5018C81.8353 16.4372 83.04 16.7705 84.1161 17.4372C85.2039 18.1039 86.0636 18.9987 86.6952 20.1216C87.3268 21.2445 87.6426 22.4785 87.6426 23.8236C87.6426 25.2038 87.3151 26.4553 86.6601 27.5782C86.0168 28.6893 85.1512 29.5783 84.0635 30.245C82.9757 30.9 81.7885 31.2275 80.5018 31.2275H76.0104V41H71.7294ZM76.0104 26.9466H80.0457C80.6539 26.9466 81.2095 26.7945 81.7124 26.4904C82.2154 26.1863 82.6131 25.7769 82.9055 25.2622C83.2096 24.7476 83.3617 24.1745 83.3617 23.5429C83.3617 22.8995 83.2096 22.3206 82.9055 21.8059C82.6131 21.2913 82.2154 20.8819 81.7124 20.5778C81.2095 20.2737 80.6539 20.1216 80.0457 20.1216H76.0104V26.9466ZM102.88 23.4551H107.161V41H102.88L102.687 38.8244C102.208 39.6081 101.57 40.2456 100.775 40.7368C99.991 41.2164 99.0611 41.4562 97.985 41.4562C96.6867 41.4562 95.4703 41.2105 94.3357 40.7193C93.2011 40.228 92.2011 39.5496 91.3355 38.6841C90.4817 37.8185 89.8091 36.8185 89.3179 35.6839C88.8383 34.5493 88.5985 33.3329 88.5985 32.0346C88.5985 30.783 88.8266 29.6075 89.2828 28.5081C89.7506 27.4086 90.3998 26.4436 91.2303 25.6131C92.0607 24.7827 93.0198 24.1335 94.1076 23.6657C95.1954 23.1978 96.3651 22.9639 97.6166 22.9639C98.7746 22.9639 99.8097 23.2212 100.722 23.7358C101.646 24.2505 102.43 24.9055 103.073 25.7009L102.88 23.4551ZM97.8798 37.3331C98.7921 37.3331 99.5992 37.105 100.301 36.6489C101.003 36.1927 101.552 35.5786 101.95 34.8067C102.348 34.023 102.547 33.1633 102.547 32.2276C102.547 31.2801 102.348 30.4204 101.95 29.6485C101.552 28.8648 100.997 28.2449 100.283 27.7887C99.5816 27.3325 98.7804 27.1045 97.8798 27.1045C96.9791 27.1045 96.1545 27.3384 95.4059 27.8063C94.6691 28.2624 94.0784 28.8765 93.6339 29.6485C93.2011 30.4204 92.9847 31.2801 92.9847 32.2276C92.9847 33.175 93.207 34.0347 93.6515 34.8067C94.0959 35.5786 94.6866 36.1927 95.4235 36.6489C96.1721 37.105 96.9908 37.3331 97.8798 37.3331ZM121.733 23.4551H126.278L116.68 49.7724H112.136L115.312 41L108.996 23.4551H113.68L117.452 35.14L121.733 23.4551ZM128.75 41V16.4372H137.523C138.856 16.4372 140.061 16.7705 141.137 17.4372C142.225 18.1039 143.084 18.9987 143.716 20.1216C144.348 21.2445 144.663 22.4785 144.663 23.8236C144.663 25.2038 144.336 26.4553 143.681 27.5782C143.038 28.6893 142.172 29.5783 141.084 30.245C139.997 30.9 138.809 31.2275 137.523 31.2275H133.031V41H128.75ZM133.031 26.9466H137.067C137.675 26.9466 138.23 26.7945 138.733 26.4904C139.236 26.1863 139.634 25.7769 139.926 25.2622C140.23 24.7476 140.382 24.1745 140.382 23.5429C140.382 22.8995 140.23 22.3206 139.926 21.8059C139.634 21.2913 139.236 20.8819 138.733 20.5778C138.23 20.2737 137.675 20.1216 137.067 20.1216H133.031V26.9466ZM146.484 34.5084V23.4551H150.765V33.3855C150.765 34.0756 150.935 34.7072 151.274 35.2804C151.613 35.8418 152.064 36.2921 152.625 36.6313C153.198 36.9588 153.824 37.1226 154.502 37.1226C155.204 37.1226 155.836 36.9588 156.397 36.6313C156.959 36.2921 157.409 35.8418 157.748 35.2804C158.087 34.7072 158.257 34.0756 158.257 33.3855V23.4551H162.538L162.555 41H158.274L158.257 39.4034C157.649 40.035 156.929 40.538 156.099 40.9123C155.268 41.2749 154.379 41.4562 153.432 41.4562C152.157 41.4562 150.993 41.1462 149.941 40.5263C148.888 39.8947 148.046 39.0584 147.414 38.0174C146.794 36.9647 146.484 35.795 146.484 34.5084ZM166.17 41V14.6827H170.451V41H166.17ZM179.844 41.3158C178.932 41.2573 178.049 41.076 177.195 40.7719C176.353 40.4561 175.604 40.0292 174.949 39.4911C174.294 38.9531 173.791 38.3098 173.44 37.5612L177.055 36.0173C177.195 36.2512 177.423 36.5027 177.739 36.7717C178.055 37.029 178.429 37.2454 178.862 37.4208C179.306 37.5963 179.792 37.684 180.318 37.684C180.762 37.684 181.183 37.6255 181.581 37.5086C181.991 37.3799 182.318 37.1869 182.564 36.9296C182.821 36.6723 182.95 36.3389 182.95 35.9295C182.95 35.4968 182.798 35.1634 182.493 34.9295C182.201 34.6838 181.827 34.5025 181.371 34.3856C180.926 34.2569 180.493 34.14 180.072 34.0347C178.961 33.8125 177.926 33.4674 176.967 32.9995C176.019 32.5317 175.253 31.9293 174.668 31.1924C174.095 30.4438 173.809 29.5432 173.809 28.4905C173.809 27.3325 174.113 26.3325 174.721 25.4903C175.341 24.6482 176.142 23.999 177.125 23.5429C178.119 23.0867 179.189 22.8586 180.335 22.8586C181.727 22.8586 183.002 23.151 184.16 23.7358C185.33 24.309 186.254 25.1219 186.932 26.1746L183.546 28.1747C183.382 27.894 183.154 27.6367 182.862 27.4027C182.57 27.1571 182.236 26.9583 181.862 26.8062C181.488 26.6424 181.096 26.5489 180.686 26.5255C180.16 26.5021 179.68 26.5489 179.248 26.6658C178.815 26.7828 178.464 26.9816 178.195 27.2624C177.938 27.5431 177.809 27.9174 177.809 28.3852C177.809 28.8297 177.984 29.1631 178.335 29.3853C178.686 29.5958 179.107 29.7596 179.599 29.8766C180.102 29.9935 180.581 30.1222 181.037 30.2625C182.067 30.6017 183.032 31.017 183.932 31.5082C184.844 31.9995 185.576 32.6019 186.125 33.3153C186.675 34.0288 186.938 34.8827 186.915 35.8769C186.915 37.0115 186.576 38.0057 185.897 38.8595C185.219 39.7017 184.342 40.345 183.265 40.7895C182.201 41.2339 181.061 41.4094 179.844 41.3158ZM197.363 41.4562C195.749 41.4562 194.275 41.0409 192.942 40.2105C191.62 39.38 190.561 38.263 189.766 36.8594C188.982 35.4558 188.591 33.906 188.591 32.21C188.591 30.9351 188.819 29.742 189.275 28.6309C189.731 27.508 190.357 26.5255 191.152 25.6833C191.959 24.8295 192.895 24.1628 193.959 23.6832C195.024 23.2037 196.158 22.9639 197.363 22.9639C198.732 22.9639 199.983 23.2563 201.118 23.8411C202.264 24.4142 203.235 25.2038 204.03 26.2097C204.825 27.2156 205.404 28.3618 205.767 29.6485C206.13 30.9351 206.211 32.2802 206.013 33.6838H193.187C193.351 34.3388 193.62 34.9295 193.994 35.4558C194.369 35.9705 194.842 36.3857 195.416 36.7015C195.989 37.0056 196.638 37.1635 197.363 37.1752C198.112 37.1869 198.79 37.0115 199.398 36.6489C200.018 36.2746 200.533 35.7716 200.942 35.14L205.311 36.1576C204.597 37.7133 203.533 38.9882 202.118 39.9824C200.702 40.9649 199.118 41.4562 197.363 41.4562ZM193.047 30.4731H201.679C201.55 29.7713 201.276 29.1397 200.854 28.5782C200.445 28.0051 199.936 27.5489 199.328 27.2097C198.72 26.8705 198.065 26.7009 197.363 26.7009C196.661 26.7009 196.012 26.8705 195.416 27.2097C194.819 27.5372 194.31 27.9876 193.889 28.5607C193.48 29.1221 193.199 29.7596 193.047 30.4731Z" fill="white"/>
<circle cx="28.7062" cy="28.7062" r="28.7062" fill="#FEAE37"/>
<path d="M32.3527 28.6779C32.3527 24.4751 33.423 21.4357 35.5636 19.5594C37.7605 17.6832 41.2811 16.7451 46.1256 16.7451H47.8437V27.3833C47.8437 36.1077 45.3463 41.6989 40.3517 44.1567C38.6054 45.0198 36.5118 45.4513 34.0708 45.4513H32.3527V28.6779ZM25.7057 45.4513C20.9926 45.4513 17.4814 43.8096 15.1718 40.5262C13.0312 37.4867 11.9609 33.1058 11.9609 27.3833V16.7451H13.679C18.5235 16.7451 22.0442 17.6832 24.2411 19.5594C26.3816 21.4357 27.4519 24.4751 27.4519 28.6779V45.4513H25.7057Z" fill="white"/>
</svg>
