<svg width="173" height="48" viewBox="0 0 173 48" fill="none" xmlns="http://www.w3.org/2000/svg">
<path d="M59.3622 34.6207V14.2928H66.6222C67.7257 14.2928 68.7227 14.5687 69.6133 15.1205C70.5135 15.6722 71.225 16.4127 71.7477 17.342C72.2704 18.2713 72.5318 19.2925 72.5318 20.4057C72.5318 21.5479 72.2607 22.5837 71.7187 23.513C71.1863 24.4326 70.4699 25.1682 69.5697 25.72C68.6695 26.2621 67.687 26.5331 66.6222 26.5331H62.9051V34.6207H59.3622ZM62.9051 22.9902H66.2447C66.748 22.9902 67.2078 22.8644 67.6241 22.6127C68.0403 22.3611 68.3694 22.0223 68.6114 21.5963C68.8631 21.1704 68.9889 20.6961 68.9889 20.1734C68.9889 19.641 68.8631 19.1618 68.6114 18.7359C68.3694 18.31 68.0403 17.9712 67.6241 17.7195C67.2078 17.4678 66.748 17.342 66.2447 17.342H62.9051V22.9902ZM85.1137 20.1008H88.6566V34.6207H85.1137L84.954 32.8202C84.5571 33.4688 84.0296 33.9963 83.3713 34.4029C82.7228 34.7998 81.9532 34.9982 81.0627 34.9982C79.9882 34.9982 78.9815 34.7949 78.0425 34.3884C77.1036 33.9818 76.2759 33.4204 75.5596 32.7041C74.853 31.9877 74.2964 31.1601 73.8898 30.2212C73.493 29.2822 73.2945 28.2755 73.2945 27.201C73.2945 26.1653 73.4833 25.1924 73.8608 24.2825C74.248 23.3726 74.7852 22.574 75.4725 21.8867C76.1598 21.1995 76.9535 20.6622 77.8538 20.275C78.754 19.8878 79.722 19.6942 80.7577 19.6942C81.7161 19.6942 82.5727 19.9072 83.3278 20.3331C84.0925 20.759 84.741 21.3011 85.2734 21.9593L85.1137 20.1008ZM80.9755 31.586C81.7306 31.586 82.3985 31.3973 82.9793 31.0197C83.5601 30.6422 84.015 30.134 84.3442 29.4952C84.6733 28.8466 84.8378 28.1351 84.8378 27.3607C84.8378 26.5767 84.6733 25.8652 84.3442 25.2263C84.015 24.5778 83.5552 24.0647 82.9648 23.6872C82.384 23.3097 81.7209 23.1209 80.9755 23.1209C80.2302 23.1209 79.5478 23.3145 78.9282 23.7017C78.3184 24.0792 77.8296 24.5874 77.4617 25.2263C77.1036 25.8652 76.9245 26.5767 76.9245 27.3607C76.9245 28.1448 77.1084 28.8563 77.4763 29.4952C77.8441 30.134 78.3329 30.6422 78.9428 31.0197C79.5623 31.3973 80.2399 31.586 80.9755 31.586ZM100.716 20.1008H104.477L96.5347 41.8806H92.7741L95.4022 34.6207L90.175 20.1008H94.0518L97.1736 29.771L100.716 20.1008ZM106.524 34.6207V14.2928H113.783C114.887 14.2928 115.884 14.5687 116.775 15.1205C117.675 15.6722 118.386 16.4127 118.909 17.342C119.432 18.2713 119.693 19.2925 119.693 20.4057C119.693 21.5479 119.422 22.5837 118.88 23.513C118.348 24.4326 117.631 25.1682 116.731 25.72C115.831 26.2621 114.848 26.5331 113.783 26.5331H110.066V34.6207H106.524ZM110.066 22.9902H113.406C113.909 22.9902 114.369 22.8644 114.785 22.6127C115.202 22.3611 115.531 22.0223 115.773 21.5963C116.024 21.1704 116.15 20.6961 116.15 20.1734C116.15 19.641 116.024 19.1618 115.773 18.7359C115.531 18.31 115.202 17.9712 114.785 17.7195C114.369 17.4678 113.909 17.342 113.406 17.342H110.066V22.9902ZM121.172 29.2483V20.1008H124.714V28.319C124.714 28.8902 124.855 29.4129 125.136 29.8872C125.416 30.3518 125.789 30.7245 126.254 31.0052C126.728 31.2763 127.246 31.4118 127.807 31.4118C128.388 31.4118 128.911 31.2763 129.375 31.0052C129.84 30.7245 130.213 30.3518 130.493 29.8872C130.774 29.4129 130.914 28.8902 130.914 28.319V20.1008H134.457L134.472 34.6207H130.929L130.914 33.2994C130.411 33.8221 129.816 34.2383 129.129 34.5481C128.441 34.8482 127.706 34.9982 126.921 34.9982C125.866 34.9982 124.903 34.7417 124.032 34.2286C123.161 33.7059 122.464 33.0138 121.941 32.1523C121.428 31.2811 121.172 30.3131 121.172 29.2483ZM137.463 34.6207V12.8408H141.006V34.6207H137.463ZM148.78 34.882C148.025 34.8336 147.294 34.6836 146.587 34.4319C145.89 34.1706 145.271 33.8172 144.729 33.372C144.187 32.9267 143.77 32.3943 143.48 31.7748L146.471 30.497C146.587 30.6906 146.776 30.8987 147.037 31.1214C147.299 31.3343 147.609 31.5134 147.967 31.6586C148.335 31.8038 148.736 31.8764 149.172 31.8764C149.54 31.8764 149.888 31.828 150.217 31.7312C150.556 31.6247 150.827 31.465 151.03 31.2521C151.243 31.0391 151.35 30.7632 151.35 30.4244C151.35 30.0663 151.224 29.7904 150.972 29.5968C150.73 29.3935 150.421 29.2435 150.043 29.1467C149.675 29.0402 149.317 28.9434 148.969 28.8563C148.049 28.6724 147.192 28.3868 146.399 27.9996C145.614 27.6124 144.98 27.1139 144.496 26.5041C144.022 25.8845 143.785 25.1392 143.785 24.268C143.785 23.3097 144.037 22.482 144.54 21.7851C145.053 21.0881 145.716 20.5509 146.529 20.1734C147.352 19.7959 148.238 19.6071 149.186 19.6071C150.338 19.6071 151.393 19.8491 152.352 20.3331C153.32 20.8074 154.084 21.4802 154.646 22.3514L151.844 24.0066C151.708 23.7743 151.519 23.5614 151.277 23.3678C151.035 23.1645 150.759 22.9999 150.45 22.8741C150.14 22.7386 149.816 22.6611 149.477 22.6418C149.041 22.6224 148.644 22.6611 148.286 22.7579C147.928 22.8547 147.638 23.0193 147.415 23.2516C147.202 23.4839 147.096 23.7937 147.096 24.1809C147.096 24.5487 147.241 24.8246 147.531 25.0085C147.822 25.1827 148.17 25.3183 148.577 25.4151C148.993 25.5119 149.39 25.6183 149.767 25.7345C150.619 26.0152 151.418 26.3589 152.163 26.7654C152.918 27.172 153.523 27.6705 153.978 28.261C154.433 28.8514 154.651 29.5581 154.631 30.3809C154.631 31.3198 154.351 32.1426 153.789 32.8493C153.228 33.5462 152.502 34.0786 151.611 34.4464C150.73 34.8143 149.787 34.9595 148.78 34.882ZM163.278 34.9982C161.942 34.9982 160.723 34.6546 159.619 33.9673C158.525 33.28 157.649 32.3556 156.991 31.194C156.342 30.0324 156.018 28.7498 156.018 27.3462C156.018 26.2911 156.207 25.3037 156.584 24.3842C156.962 23.4549 157.48 22.6418 158.138 21.9448C158.806 21.2382 159.58 20.6864 160.461 20.2895C161.342 19.8927 162.281 19.6942 163.278 19.6942C164.411 19.6942 165.446 19.9362 166.385 20.4202C167.334 20.8945 168.137 21.5479 168.796 22.3804C169.454 23.2129 169.933 24.1615 170.233 25.2263C170.533 26.2911 170.601 27.4043 170.436 28.5659H159.822C159.958 29.108 160.181 29.5968 160.49 30.0324C160.8 30.4583 161.192 30.8019 161.666 31.0633C162.141 31.315 162.678 31.4457 163.278 31.4553C163.898 31.465 164.459 31.3198 164.962 31.0197C165.476 30.71 165.901 30.2938 166.24 29.771L169.856 30.6132C169.265 31.9006 168.384 32.9557 167.213 33.7785C166.042 34.5916 164.73 34.9982 163.278 34.9982ZM159.706 25.9087H166.85C166.744 25.3279 166.516 24.8052 166.168 24.3406C165.829 23.8663 165.408 23.4888 164.904 23.208C164.401 22.9273 163.859 22.787 163.278 22.787C162.697 22.787 162.16 22.9273 161.666 23.208C161.173 23.4791 160.752 23.8518 160.403 24.3261C160.064 24.7907 159.832 25.3183 159.706 25.9087Z" fill="#1D1E25"/>
<circle cx="23.7568" cy="23.7568" r="23.7568" fill="#FEAE37"/>
<path d="M26.7746 23.7334C26.7746 20.2553 27.6604 17.7399 29.4319 16.1871C31.25 14.6344 34.1637 13.858 38.1729 13.858H39.5947V22.662C39.5947 29.8822 37.528 34.5094 33.3944 36.5435C31.9493 37.2577 30.2166 37.6149 28.1965 37.6149H26.7746V23.7334ZM21.2736 37.6149C17.3732 37.6149 14.4673 36.2562 12.5559 33.5389C10.7844 31.0235 9.89867 27.3979 9.89867 22.662V13.858H11.3205C15.3297 13.858 18.2434 14.6344 20.0615 16.1871C21.833 17.7399 22.7188 20.2553 22.7188 23.7334V37.6149H21.2736Z" fill="white"/>
</svg>
