<svg width="40" height="40" viewBox="0 0 40 40" fill="none" xmlns="http://www.w3.org/2000/svg">
<rect width="40" height="40" rx="20" fill="white" fill-opacity="0.05"/>
<path fill-rule="evenodd" clip-rule="evenodd" d="M14.0858 31.9151C12.6585 31.8502 11.8831 31.6127 11.3674 31.4115C10.6841 31.1455 10.1969 30.8288 9.68407 30.3166C9.17122 29.8045 8.85381 29.3173 8.58918 28.634C8.38803 28.1183 8.1505 27.3429 8.08559 25.9157C8.01427 24.3728 8 23.9099 8 20.0011C8 16.0923 8.01569 15.63 8.08488 14.0858C8.14979 12.6585 8.38874 11.8846 8.58846 11.3674C8.85452 10.6841 9.17193 10.1969 9.68336 9.68336C10.1955 9.17122 10.6827 8.85309 11.3667 8.58846C11.8824 8.38732 12.6578 8.14979 14.0851 8.08488C15.6286 8.01427 16.0923 8 19.9996 8C23.9085 8 24.3707 8.01569 25.9149 8.08488C27.3422 8.14979 28.1161 8.38874 28.6333 8.58846C29.3166 8.85309 29.8038 9.17122 30.3166 9.68336C30.8295 10.1955 31.1455 10.6834 31.4115 11.3667C31.6127 11.8824 31.8502 12.6578 31.9151 14.0851C31.9857 15.6293 32 16.0915 32 20.0004C32 23.9077 31.9857 24.3714 31.9151 25.9157C31.8502 27.3429 31.6113 28.1183 31.4115 28.634C31.1455 29.3173 30.8288 29.8045 30.3166 30.3166C29.8045 30.8288 29.3166 31.1455 28.6333 31.4115C28.1176 31.6127 27.3422 31.8502 25.9149 31.9151C24.3721 31.9857 23.9085 32 19.9996 32C16.0923 32 15.6286 31.9864 14.0858 31.9151ZM26.4505 13.128C26.2572 12.8385 26.1541 12.4982 26.1543 12.1502C26.1547 11.6836 26.3402 11.2363 26.6702 10.9065C27.0001 10.5767 27.4475 10.3913 27.914 10.3911H27.9147C28.2628 10.3913 28.603 10.4946 28.8923 10.6881C29.1816 10.8816 29.407 11.1565 29.5401 11.4781C29.6732 11.7997 29.7079 12.1535 29.6398 12.4949C29.5718 12.8362 29.4041 13.1497 29.1579 13.3957C28.9117 13.6417 28.598 13.8092 28.2566 13.8769C27.9153 13.9447 27.5614 13.9097 27.2399 13.7764C26.9184 13.6431 26.6437 13.4174 26.4505 13.128ZM13.3684 19.9737C13.3684 16.2389 16.3838 13.2105 20.1045 13.2105C23.8251 13.2105 26.8421 16.2389 26.8421 19.9737C26.8421 23.7084 23.8251 26.7368 20.1045 26.7368C16.3838 26.7368 13.3684 23.7084 13.3684 19.9737Z" fill="white"/>
<path d="M20.098 15.0903C17.3984 15.0903 15.2105 17.2793 15.2105 19.9789C15.2105 22.6784 17.3984 24.8675 20.098 24.8675C22.7975 24.8675 24.9866 22.6784 24.9866 19.9789C24.9866 17.2793 22.7975 15.0903 20.098 15.0903Z" fill="white"/>
</svg>
