<svg width="40" height="40" viewBox="0 0 40 40" fill="none" xmlns="http://www.w3.org/2000/svg">
<rect width="40" height="40" rx="20" fill="#FFFAF3"/>
<path d="M15.5478 30C24.6048 30 29.5578 22.3062 29.5578 15.6344C29.5578 15.4159 29.5534 15.1984 29.5438 14.9818C30.5075 14.2668 31.3393 13.3814 32 12.3673C31.1177 12.7695 30.1683 13.0402 29.1723 13.1623C30.1889 12.5372 30.9694 11.5483 31.3376 10.3697C30.371 10.9576 29.3136 11.3721 28.2109 11.5952C27.3123 10.6138 26.0331 10 24.6166 10C21.8974 10 19.6923 12.2611 19.6923 15.0482C19.6923 15.4445 19.7356 15.8298 19.8201 16.1995C15.7277 15.9884 12.0988 13.9793 9.67015 10.9243C9.23273 11.6948 9.00265 12.5705 9.00341 13.462C9.00341 15.2137 9.87268 16.7601 11.1946 17.6648C10.4127 17.6403 9.6479 17.4237 8.96459 17.0332C8.96385 17.0544 8.96385 17.0751 8.96385 17.0978C8.96385 19.5429 10.6611 21.5844 12.9142 22.047C12.491 22.1652 12.0544 22.225 11.6158 22.2247C11.2991 22.2247 10.9904 22.1928 10.6904 22.1337C11.3173 24.1398 13.135 25.5996 15.2902 25.6404C13.6049 26.9949 11.4819 27.8016 9.17454 27.8016C8.78202 27.802 8.38983 27.7786 8 27.7317C10.1792 29.164 12.7666 30 15.5478 30Z" fill="#FEAE37"/>
</svg>
